<svg xmlns="http://www.w3.org/2000/svg" width="20.5" height="20.5" viewBox="0 0 20.5 20.5">
    <g transform="translate(-118.75 -936.75)">
        <path
            d="M9.5-.75A10.25,10.25,0,1,1-.75,9.5,10.262,10.262,0,0,1,9.5-.75Zm0,19A8.75,8.75,0,1,0,.75,9.5,8.76,8.76,0,0,0,9.5,18.25Z"
            transform="translate(119.5 937.5)" fill="#787c94" />
        <path
            d="M1809.068-88.881v-3.085h-3.085a.983.983,0,0,1-.983-.983.983.983,0,0,1,.983-.984h3.085v-3.085a.983.983,0,0,1,.983-.983.983.983,0,0,1,.983.983v3.085h3.085a.983.983,0,0,1,.983.984.983.983,0,0,1-.983.983h-3.085v3.085a.983.983,0,0,1-.983.983A.983.983,0,0,1,1809.068-88.881Z"
            transform="translate(-1681 1040)" fill="#787c94" />
    </g>
</svg>