<svg id="Vrstva_1" data-name="Vrstva 1" xmlns="http://www.w3.org/2000/svg" viewBox="0 0 19 15"><title>logout</title><path id="logout_kopie" data-name="logout kopie" d="M2.41,15A2.46,2.46,0,0,1,0,12.5V2.5A2.46,2.46,0,0,1,2.41,0h7.78a2.46,2.46,0,0,1,2.41,2.5V4.12a0.48,0.48,0,1,1-1,0s0,0,0,0V2.5A1.49,1.49,0,0,0,10.18,1H2.41A1.49,1.49,0,0,0,.95,2.5v10A1.49,1.49,0,0,0,2.41,14h7.77a1.49,1.49,0,0,0,1.46-1.52V10.88a0.48,0.48,0,1,1,1,0s0,0,0,0V12.5A2.46,2.46,0,0,1,10.18,15H2.41Zm12.53-3.77a0.5,0.5,0,0,1,0-.69L17.38,8H8.47a0.5,0.5,0,0,1,0-1h8.91L14.94,4.47a0.5,0.5,0,0,1,0-.7,0.46,0.46,0,0,1,.65,0l0,0,3.25,3.38a0.5,0.5,0,0,1,0,.7l-3.25,3.38a0.46,0.46,0,0,1-.66,0l0,0h0Z" transform="translate(0 0)" fill="#adb6cb"/></svg>