<svg xmlns="http://www.w3.org/2000/svg" width="20" height="20" viewBox="0 0 20 20">
    <g transform="translate(-30)">
        <g transform="translate(30)">
            <path
                d="M20.284,15.761l-3.3-3.292a9.054,9.054,0,0,0,1-3.99,8.511,8.511,0,1,0-8.511,8.479,9.143,9.143,0,0,0,4.005-1l3.3,3.292a2.426,2.426,0,0,0,3.5,0A2.592,2.592,0,0,0,20.284,15.761Zm-10.814-.8a6.484,6.484,0,1,1,6.508-6.484A6.483,6.483,0,0,1,9.471,14.963Z"
                transform="translate(-0.96)" fill="#787c94" />
        </g>
    </g>
</svg>