<svg xmlns="http://www.w3.org/2000/svg" width="45.336" height="45.336" viewBox="0 0 45.336 45.336">
    <g transform="translate(0 0)">
        <path
            d="M22.668,0A22.668,22.668,0,1,0,45.336,22.668,22.668,22.668,0,0,0,22.668,0Zm0,42.1A19.43,19.43,0,1,1,42.1,22.668,19.43,19.43,0,0,1,22.668,42.1Z"
            fill="#f2f3f7" />
    </g>
    <g transform="translate(15.559 14.002)">
        <g transform="translate(0 0)">
            <path
                d="M17.148,7.893a1.733,1.733,0,0,0-.778-.778L2.508.183A1.733,1.733,0,0,0,0,1.734V15.6a1.733,1.733,0,0,0,2.508,1.551L16.37,10.217A1.733,1.733,0,0,0,17.148,7.893Zm-13.683,4.9V4.538l8.255,4.128Z"
                fill="#f2f3f7" />
        </g>
    </g>
</svg>